<svg width="49" height="17" viewBox="0 0 49 17" fill="none" xmlns="http://www.w3.org/2000/svg">
<path d="M0.249512 14.54L0.993365 13.6807C1.87018 14.4827 2.73621 15.0664 3.59146 15.4316C4.44671 15.7897 5.43133 15.9688 6.54532 15.9688C7.69523 15.9688 8.63314 15.6787 9.35902 15.0986C10.0849 14.5186 10.4479 13.7738 10.4479 12.8643C10.4479 12.2913 10.3293 11.8151 10.0921 11.4355C9.86211 11.056 9.42371 10.7122 8.77688 10.4043C8.13723 10.0964 7.23886 9.82422 6.08176 9.58789C4.22032 9.20833 2.88354 8.68197 2.07141 8.00879C1.26647 7.32845 0.863999 6.39746 0.863999 5.21582C0.863999 4.06283 1.33475 3.09961 2.27624 2.32617C3.21774 1.55273 4.40359 1.16602 5.8338 1.16602C6.92623 1.16602 7.8785 1.31641 8.69063 1.61719C9.50276 1.91081 10.3149 2.38346 11.127 3.03516L10.4047 3.9375C9.69322 3.32161 8.96374 2.8776 8.21629 2.60547C7.47603 2.33333 6.66749 2.19727 5.79068 2.19727C4.66951 2.19727 3.76036 2.48014 3.06322 3.0459C2.36608 3.60449 2.01751 4.30632 2.01751 5.15137C2.01751 5.73145 2.1325 6.21484 2.36249 6.60156C2.59966 6.98112 3.04884 7.33561 3.71005 7.66504C4.37844 7.9873 5.31275 8.27018 6.51297 8.51367C8.30254 8.87891 9.59619 9.39811 10.3939 10.0713C11.1989 10.7445 11.6014 11.654 11.6014 12.7998C11.6014 14.0316 11.1198 15.0413 10.1568 15.8291C9.19372 16.6097 7.96475 17 6.46985 17C5.25525 17 4.14845 16.7995 3.14946 16.3984C2.15766 15.9974 1.19101 15.3779 0.249512 14.54Z" fill="#212121"/>
<path d="M17.0438 16.7852V0.725586H18.1218V16.7852H17.0438Z" fill="#212121"/>
<path d="M24.1787 2.6377V1.16602H25.5155V2.6377H24.1787ZM24.3081 16.7852V5.57031H25.3862V16.7852H24.3081Z" fill="#212121"/>
<path d="M31.4107 16.7852V5.57031H32.4996V7.56836C32.708 7.23893 32.9164 6.95247 33.1248 6.70898C33.3332 6.46549 33.5848 6.23275 33.8795 6.01074C34.1813 5.78158 34.5299 5.60612 34.9252 5.48438C35.3276 5.36263 35.7696 5.30176 36.2512 5.30176C37.1711 5.30176 37.9473 5.52734 38.5797 5.97852C39.2194 6.42253 39.7081 7.0026 40.0459 7.71875C40.9874 6.10742 42.3421 5.30176 44.1101 5.30176C45.4397 5.30176 46.4926 5.72786 47.2688 6.58008C48.045 7.43229 48.4331 8.56738 48.4331 9.98535V16.7852H47.3551V10.1143C47.3551 8.91113 47.0604 7.97298 46.4711 7.2998C45.8817 6.62663 45.066 6.29004 44.0239 6.29004C43.0321 6.29004 42.1912 6.64811 41.5013 7.36426C40.8113 8.0804 40.4663 9.04362 40.4663 10.2539V16.7852H39.3883V10.0498C39.3883 8.88965 39.09 7.97298 38.4935 7.2998C37.9042 6.62663 37.1064 6.29004 36.1002 6.29004C35.0941 6.29004 34.2424 6.68034 33.5453 7.46094C32.8481 8.23438 32.4996 9.18685 32.4996 10.3184V16.7852H31.4107Z" fill="#212121"/>
</svg>
